{
  "accessors": [
    {
      "bufferView": 2,
      "componentType": 5126,
      "count": 183,
      "max": [
        0.7722573280334473,
        0.519418478012085,
        1.7659120559692383
      ],
      "min": [
        -0.3079245090484619,
        -0.5664793252944946,
        0.5461515784263611
      ],
      "type": "VEC3"
    },
    {
      "bufferView": 2,
      "byteOffset": 2196,
      "componentType": 5126,
      "count": 183,
      "max": [
        0.9725276231765747,
        0.9925279021263123,
        0.9625285863876343
      ],
      "min": [
        -0.8489729762077332,
        -0.9925277233123779,
        -0.9989907145500183
      ],
      "type": "VEC3"
    },
    {
      "bufferView": 1,
      "componentType": 5126,
      "count": 183,
      "max": [
        1.0,
        1.0
      ],
      "min": [
        -1.0,
        0.0
      ],
      "type": "VEC2"
    },
    {
      "bufferView": 0,
      "componentType": 5125,
      "count": 600,
      "type": "SCALAR"
    },
    {
      "bufferView": 2,
      "byteOffset": 4392,
      "componentType": 5126,
      "count": 5611,
      "max": [
        0.038999609649181366,
        -3.4697461128234863,
        0.05174462869763374
      ],
      "min": [
        -0.023416850715875626,
        -3.5717899799346924,
        -0.030570609495043755
      ],
      "type": "VEC3"
    },
    {
      "bufferView": 2,
      "byteOffset": 71724,
      "componentType": 5126,
      "count": 5611,
      "max": [
        0.999768078327179,
        0.9997379779815674,
        0.9999911189079285
      ],
      "min": [
        -0.9997289180755615,
        -0.99918532371521,
        -0.999956488609314
      ],
      "type": "VEC3"
    },
    {
      "bufferView": 1,
      "byteOffset": 1464,
      "componentType": 5126,
      "count": 5611,
      "max": [
        0.9959999918937683,
        0.996999979019165
      ],
      "min": [
        0.0019999740179628134,
        0.006000041961669922
      ],
      "type": "VEC2"
    },
    {
      "bufferView": 0,
      "byteOffset": 2400,
      "componentType": 5125,
      "count": 18339,
      "type": "SCALAR"
    },
    {
      "bufferView": 2,
      "byteOffset": 139056,
      "componentType": 5126,
      "count": 1014,
      "max": [
        3.857672929763794,
        1.5493040084838867,
        0.5318759083747864
      ],
      "min": [
        -1.4064379930496216,
        -1.5144360065460205,
        -2.409013032913208
      ],
      "type": "VEC3"
    },
    {
      "bufferView": 2,
      "byteOffset": 151224,
      "componentType": 5126,
      "count": 1014,
      "max": [
        0.9995306134223938,
        0.998909592628479,
        0.9983261227607727
      ],
      "min": [
        -0.9999065399169922,
        -0.9994340538978577,
        -0.9983075857162476
      ],
      "type": "VEC3"
    },
    {
      "bufferView": 1,
      "byteOffset": 46352,
      "componentType": 5126,
      "count": 1014,
      "max": [
        0.5839999914169312,
        0.890999972820282
      ],
      "min": [
        0.004999995231628418,
        0.003000020980834961
      ],
      "type": "VEC2"
    },
    {
      "bufferView": 0,
      "byteOffset": 75756,
      "componentType": 5125,
      "count": 3735,
      "type": "SCALAR"
    },
    {
      "bufferView": 2,
      "byteOffset": 163392,
      "componentType": 5126,
      "count": 1938,
      "max": [
        1.249763011932373,
        4.110589027404785,
        1.6879630088806152
      ],
      "min": [
        -0.41647109389305115,
        -4.1515960693359375,
        0.63588547706604
      ],
      "type": "VEC3"
    },
    {
      "bufferView": 2,
      "byteOffset": 186648,
      "componentType": 5126,
      "count": 1938,
      "max": [
        0.9990683197975159,
        0.9775280952453613,
        0.9999839067459106
      ],
      "min": [
        -0.9971715807914734,
        -0.9966134428977966,
        -0.9976133108139038
      ],
      "type": "VEC3"
    },
    {
      "bufferView": 1,
      "byteOffset": 54464,
      "componentType": 5126,
      "count": 1938,
      "max": [
        0.9940000176429749,
        0.9940000176429749
      ],
      "min": [
        0.30300000309944153,
        0.34700000286102295
      ],
      "type": "VEC2"
    },
    {
      "bufferView": 0,
      "byteOffset": 90696,
      "componentType": 5125,
      "count": 5100,
      "type": "SCALAR"
    },
    {
      "bufferView": 2,
      "byteOffset": 209904,
      "componentType": 5126,
      "count": 149,
      "max": [
        -0.5352268815040588,
        -0.09288868308067322,
        0.43623989820480347
      ],
      "min": [
        -0.6000822186470032,
        -0.3628162145614624,
        -0.025358689948916435
      ],
      "type": "VEC3"
    },
    {
      "bufferView": 2,
      "byteOffset": 211692,
      "componentType": 5126,
      "count": 149,
      "max": [
        0.9924609661102295,
        0.9924145936965942,
        0.99994957447052
      ],
      "min": [
        -0.9924609661102295,
        -0.9924145936965942,
        -0.99994957447052
      ],
      "type": "VEC3"
    },
    {
      "bufferView": 1,
      "byteOffset": 69968,
      "componentType": 5126,
      "count": 149,
      "max": [
        1.0,
        1.0
      ],
      "min": [
        -1.0,
        0.0
      ],
      "type": "VEC2"
    },
    {
      "bufferView": 0,
      "byteOffset": 111096,
      "componentType": 5125,
      "count": 600,
      "type": "SCALAR"
    },
    {
      "bufferView": 2,
      "byteOffset": 213480,
      "componentType": 5126,
      "count": 149,
      "max": [
        -0.4861338138580322,
        0.3046607971191406,
        0.4401211142539978
      ],
      "min": [
        -0.5509892702102661,
        0.03473417088389397,
        -0.02147536911070347
      ],
      "type": "VEC3"
    },
    {
      "bufferView": 2,
      "byteOffset": 215268,
      "componentType": 5126,
      "count": 149,
      "max": [
        0.9924608469009399,
        0.9924142956733704,
        0.9999496936798096
      ],
      "min": [
        -0.9924608469009399,
        -0.9924142956733704,
        -0.9999496936798096
      ],
      "type": "VEC3"
    },
    {
      "bufferView": 1,
      "byteOffset": 71160,
      "componentType": 5126,
      "count": 149,
      "max": [
        1.0,
        1.0
      ],
      "min": [
        -1.0,
        0.0
      ],
      "type": "VEC2"
    },
    {
      "bufferView": 0,
      "byteOffset": 113496,
      "componentType": 5125,
      "count": 600,
      "type": "SCALAR"
    },
    {
      "bufferView": 2,
      "byteOffset": 217056,
      "componentType": 5126,
      "count": 705,
      "max": [
        0.13877800107002258,
        1.156479001045227,
        3.2980949878692627
      ],
      "min": [
        -1.4324320554733276,
        -0.30960041284561157,
        1.7410720586776733
      ],
      "type": "VEC3"
    },
    {
      "bufferView": 2,
      "byteOffset": 225516,
      "componentType": 5126,
      "count": 705,
      "max": [
        0.9358181953430176,
        0.9979137778282166,
        0.9989038705825806
      ],
      "min": [
        -0.9728584289550781,
        -0.9975634217262268,
        -0.9859958291053772
      ],
      "type": "VEC3"
    },
    {
      "bufferView": 1,
      "byteOffset": 72352,
      "componentType": 5126,
      "count": 705,
      "max": [
        0.9871940016746521,
        0.9998509883880615
      ],
      "min": [
        0.00014899999951012433,
        0.00014901200484018773
      ],
      "type": "VEC2"
    },
    {
      "bufferView": 0,
      "byteOffset": 115896,
      "componentType": 5125,
      "count": 2154,
      "type": "SCALAR"
    },
    {
      "bufferView": 2,
      "byteOffset": 233976,
      "componentType": 5126,
      "count": 661,
      "max": [
        1.6519540548324585,
        1.1626349687576294,
        23.562450408935547
      ],
      "min": [
        -6.243624210357666,
        -11.823619842529297,
        1.6207890510559082
      ],
      "type": "VEC3"
    },
    {
      "bufferView": 2,
      "byteOffset": 241908,
      "componentType": 5126,
      "count": 661,
      "max": [
        0.9960426092147827,
        0.9985067248344421,
        0.9981557130813599
      ],
      "min": [
        -0.9921144247055054,
        -0.9948133826255798,
        -0.9999942183494568
      ],
      "type": "VEC3"
    },
    {
      "bufferView": 1,
      "byteOffset": 77992,
      "componentType": 5126,
      "count": 661,
      "max": [
        0.6482599973678589,
        0.9909759759902954
      ],
      "min": [
        0.017138000577688217,
        0.35835400223731995
      ],
      "type": "VEC2"
    },
    {
      "bufferView": 0,
      "byteOffset": 124512,
      "componentType": 5125,
      "count": 3561,
      "type": "SCALAR"
    },
    {
      "bufferView": 2,
      "byteOffset": 249840,
      "componentType": 5126,
      "count": 739,
      "max": [
        1.0587430000305176,
        0.8066468238830566,
        0.7831227779388428
      ],
      "min": [
        -0.5296139121055603,
        -0.926140308380127,
        -0.5129336714744568
      ],
      "type": "VEC3"
    },
    {
      "bufferView": 2,
      "byteOffset": 258708,
      "componentType": 5126,
      "count": 739,
      "max": [
        1.0,
        1.0,
        1.0
      ],
      "min": [
        -1.0,
        -1.0,
        -1.0
      ],
      "type": "VEC3"
    },
    {
      "bufferView": 1,
      "byteOffset": 83280,
      "componentType": 5126,
      "count": 739,
      "max": [
        1.0,
        1.0
      ],
      "min": [
        -1.0,
        0.0
      ],
      "type": "VEC2"
    },
    {
      "bufferView": 0,
      "byteOffset": 138756,
      "componentType": 5125,
      "count": 2784,
      "type": "SCALAR"
    },
    {
      "bufferView": 2,
      "byteOffset": 267576,
      "componentType": 5126,
      "count": 298,
      "max": [
        0.5388246178627014,
        1.7561969757080078,
        5.039552211761475
      ],
      "min": [
        0.06964220106601715,
        -1.8590580224990845,
        3.6287379264831543
      ],
      "type": "VEC3"
    },
    {
      "bufferView": 2,
      "byteOffset": 271152,
      "componentType": 5126,
      "count": 298,
      "max": [
        0.9924649000167847,
        0.99245285987854,
        0.9999827742576599
      ],
      "min": [
        -0.9924649000167847,
        -0.9924528002738953,
        -0.9999827742576599
      ],
      "type": "VEC3"
    },
    {
      "bufferView": 1,
      "byteOffset": 89192,
      "componentType": 5126,
      "count": 298,
      "max": [
        1.0,
        1.0
      ],
      "min": [
        -1.0,
        0.0
      ],
      "type": "VEC2"
    },
    {
      "bufferView": 0,
      "byteOffset": 149892,
      "componentType": 5125,
      "count": 1200,
      "type": "SCALAR"
    }
  ],
  "asset": {
    "extras": {
      "author": "Thepplanetearth 2 (https://sketchfab.com/urielmartinezjr6)",
      "license": "CC-BY-4.0 (http://creativecommons.org/licenses/by/4.0/)",
      "source": "https://sketchfab.com/3d-models/mickey-mouse-shorts-2013-88fd907f431c428698f2570f107236dc",
      "title": "Mickey mouse shorts 2013"
    },
    "generator": "Sketchfab-16.68.0",
    "version": "2.0"
  },
  "bufferViews": [
    {
      "buffer": 0,
      "byteLength": 154692,
      "name": "floatBufferViews",
      "target": 34963
    },
    {
      "buffer": 0,
      "byteLength": 91576,
      "byteOffset": 154692,
      "byteStride": 8,
      "name": "floatBufferViews",
      "target": 34962
    },
    {
      "buffer": 0,
      "byteLength": 274728,
      "byteOffset": 246268,
      "byteStride": 12,
      "name": "floatBufferViews",
      "target": 34962
    }
  ],
  "buffers": [
    {
      "byteLength": 520996,
      "uri": "scene.bin"
    }
  ],
  "extensionsUsed": [
    "KHR_materials_unlit"
  ],
  "images": [
    {
      "uri": "textures/Material_1_baseColor.jpeg"
    },
    {
      "uri": "textures/Material_3_baseColor.jpeg"
    },
    {
      "uri": "textures/Material_6_baseColor.jpeg"
    },
    {
      "uri": "textures/Material_8_baseColor.png"
    },
    {
      "uri": "textures/Material_9_baseColor.png"
    }
  ],
  "materials": [
    {
      "doubleSided": true,
      "extensions": {
        "KHR_materials_unlit": {}
      },
      "name": "Material",
      "pbrMetallicRoughness": {
        "baseColorFactor": [
          0.0016616422565648194,
          9.148478944585016e-05,
          9.148478944585016e-05,
          1.0
        ],
        "metallicFactor": 0.0
      }
    },
    {
      "doubleSided": true,
      "extensions": {
        "KHR_materials_unlit": {}
      },
      "name": "Material_1",
      "pbrMetallicRoughness": {
        "baseColorTexture": {
          "index": 0
        },
        "metallicFactor": 0.0
      }
    },
    {
      "doubleSided": true,
      "extensions": {
        "KHR_materials_unlit": {}
      },
      "name": "Material_2",
      "pbrMetallicRoughness": {
        "metallicFactor": 0.0
      }
    },
    {
      "doubleSided": true,
      "extensions": {
        "KHR_materials_unlit": {}
      },
      "name": "Material_3",
      "pbrMetallicRoughness": {
        "baseColorTexture": {
          "index": 1
        },
        "metallicFactor": 0.0
      }
    },
    {
      "doubleSided": true,
      "extensions": {
        "KHR_materials_unlit": {}
      },
      "name": "Material_4",
      "pbrMetallicRoughness": {
        "baseColorTexture": {
          "index": 1
        },
        "metallicFactor": 0.0
      }
    },
    {
      "doubleSided": true,
      "extensions": {
        "KHR_materials_unlit": {}
      },
      "name": "Material_5",
      "pbrMetallicRoughness": {
        "baseColorFactor": [
          0.0039034512385783954,
          9.304900190509985e-05,
          9.304900190509985e-05,
          1.0
        ],
        "metallicFactor": 0.0
      }
    },
    {
      "doubleSided": true,
      "extensions": {
        "KHR_materials_unlit": {}
      },
      "name": "Material_6",
      "pbrMetallicRoughness": {
        "baseColorTexture": {
          "index": 2
        },
        "metallicFactor": 0.0
      }
    },
    {
      "doubleSided": true,
      "extensions": {
        "KHR_materials_unlit": {}
      },
      "name": "Material_8",
      "pbrMetallicRoughness": {
        "baseColorTexture": {
          "index": 3
        },
        "metallicFactor": 0.0
      }
    },
    {
      "doubleSided": true,
      "extensions": {
        "KHR_materials_unlit": {}
      },
      "name": "Material_9",
      "pbrMetallicRoughness": {
        "baseColorTexture": {
          "index": 4
        },
        "metallicFactor": 0.0
      }
    }
  ],
  "meshes": [
    {
      "name": "Object_0",
      "primitives": [
        {
          "attributes": {
            "NORMAL": 1,
            "POSITION": 0,
            "TEXCOORD_0": 2
          },
          "indices": 3,
          "material": 0,
          "mode": 4
        }
      ]
    },
    {
      "name": "Object_1",
      "primitives": [
        {
          "attributes": {
            "NORMAL": 5,
            "POSITION": 4,
            "TEXCOORD_0": 6
          },
          "indices": 7,
          "material": 2,
          "mode": 4
        }
      ]
    },
    {
      "name": "Object_2",
      "primitives": [
        {
          "attributes": {
            "NORMAL": 9,
            "POSITION": 8,
            "TEXCOORD_0": 10
          },
          "indices": 11,
          "material": 6,
          "mode": 4
        }
      ]
    },
    {
      "name": "Object_3",
      "primitives": [
        {
          "attributes": {
            "NORMAL": 13,
            "POSITION": 12,
            "TEXCOORD_0": 14
          },
          "indices": 15,
          "material": 6,
          "mode": 4
        }
      ]
    },
    {
      "name": "Object_4",
      "primitives": [
        {
          "attributes": {
            "NORMAL": 17,
            "POSITION": 16,
            "TEXCOORD_0": 18
          },
          "indices": 19,
          "material": 4,
          "mode": 4
        }
      ]
    },
    {
      "name": "Object_5",
      "primitives": [
        {
          "attributes": {
            "NORMAL": 21,
            "POSITION": 20,
            "TEXCOORD_0": 22
          },
          "indices": 23,
          "material": 3,
          "mode": 4
        }
      ]
    },
    {
      "name": "Object_6",
      "primitives": [
        {
          "attributes": {
            "NORMAL": 25,
            "POSITION": 24,
            "TEXCOORD_0": 26
          },
          "indices": 27,
          "material": 8,
          "mode": 4
        }
      ]
    },
    {
      "name": "Object_7",
      "primitives": [
        {
          "attributes": {
            "NORMAL": 29,
            "POSITION": 28,
            "TEXCOORD_0": 30
          },
          "indices": 31,
          "material": 7,
          "mode": 4
        }
      ]
    },
    {
      "name": "Object_8",
      "primitives": [
        {
          "attributes": {
            "NORMAL": 33,
            "POSITION": 32,
            "TEXCOORD_0": 34
          },
          "indices": 35,
          "material": 1,
          "mode": 4
        }
      ]
    },
    {
      "name": "Object_9",
      "primitives": [
        {
          "attributes": {
            "NORMAL": 37,
            "POSITION": 36,
            "TEXCOORD_0": 38
          },
          "indices": 39,
          "material": 5,
          "mode": 4
        }
      ]
    }
  ],
  "nodes": [
    {
      "children": [
        1
      ],
      "matrix": [
        1.0,
        0.0,
        0.0,
        0.0,
        0.0,
        2.220446049250313e-16,
        -1.0,
        0.0,
        0.0,
        1.0,
        2.220446049250313e-16,
        0.0,
        0.0,
        0.0,
        0.0,
        1.0
      ],
      "name": "Sketchfab_model"
    },
    {
      "children": [
        2,
        3,
        4,
        5,
        6,
        7,
        8,
        9,
        10,
        11
      ],
      "name": "New Project 21.obj.cleaner.materialmerger.gles"
    },
    {
      "mesh": 0,
      "name": "Object_2"
    },
    {
      "mesh": 1,
      "name": "Object_3"
    },
    {
      "mesh": 2,
      "name": "Object_4"
    },
    {
      "mesh": 3,
      "name": "Object_5"
    },
    {
      "mesh": 4,
      "name": "Object_6"
    },
    {
      "mesh": 5,
      "name": "Object_7"
    },
    {
      "mesh": 6,
      "name": "Object_8"
    },
    {
      "mesh": 7,
      "name": "Object_9"
    },
    {
      "mesh": 8,
      "name": "Object_10"
    },
    {
      "mesh": 9,
      "name": "Object_11"
    }
  ],
  "samplers": [
    {
      "magFilter": 9729,
      "minFilter": 9987,
      "wrapS": 10497,
      "wrapT": 10497
    }
  ],
  "scene": 0,
  "scenes": [
    {
      "name": "Sketchfab_Scene",
      "nodes": [
        0
      ]
    }
  ],
  "textures": [
    {
      "sampler": 0,
      "source": 0
    },
    {
      "sampler": 0,
      "source": 1
    },
    {
      "sampler": 0,
      "source": 2
    },
    {
      "sampler": 0,
      "source": 3
    },
    {
      "sampler": 0,
      "source": 4
    }
  ]
}
